<mxfile host="app.diagrams.net" modified="2023-07-21T14:13:09.531Z" agent="Mozilla/5.0 (Windows NT 10.0; Win64; x64; rv:109.0) Gecko/20100101 Firefox/115.0" version="21.6.3" etag="0l85Sv0NnW3fUBtrKIOe" type="github">
  <diagram name="Page-1" id="MHyjoezg4iQkEYZdYLgr">
    <mxGraphModel>
      <root>
        <mxCell id="0" />
        <mxCell id="1" parent="0" />
      </root>
    </mxGraphModel>
  </diagram>
</mxfile>
